<?xml version="1.0" encoding="utf-8"?>
<!-- Generator: Adobe Illustrator 25.2.0, SVG Export Plug-In . SVG Version: 6.00 Build 0)  -->
<svg version="1.1" id="Ebene_1" xmlns="http://www.w3.org/2000/svg" xmlns:xlink="http://www.w3.org/1999/xlink" x="0px" y="0px"
	 viewBox="0 0 161.258 52.781" style="enable-background:new 0 0 161.258 52.781;" xml:space="preserve">
<style type="text/css">
	.st0{clip-path:url(#SVGID_2_);fill:#58585A;}
	.st1{clip-path:url(#SVGID_2_);fill:#8AAE35;}
</style>
<g>
	<defs>
		<rect id="SVGID_1_" x="0.316" y="0" width="160.942" height="52.307"/>
	</defs>
	<clipPath id="SVGID_2_">
		<use xlink:href="#SVGID_1_"  style="overflow:visible;"/>
	</clipPath>
	<path class="st0" d="M129.314,50.473c0.362,0.145,0.756,0.193,1.15,0.193c0.62,0,1.432-0.297,1.432-1.166
		c0-1.344-2.02-1.247-2.02-2.012c0-0.523,0.363-0.684,0.886-0.684c0.282,0,0.644,0.072,0.909,0.193l0.048-0.443
		c-0.361-0.135-0.796-0.184-1.013-0.184c-0.677,0-1.336,0.305-1.336,1.118c0,1.191,1.972,1.038,1.972,2.012
		c0,0.467-0.427,0.733-0.91,0.733c-0.395,0-0.764-0.105-1.07-0.258L129.314,50.473z M125.902,48.229
		c0-0.676,0.458-1.425,1.207-1.425c0.757,0,1.046,0.708,1.046,1.425H125.902z M128.404,49.927c-0.241,0.153-0.78,0.306-1.15,0.306
		c-0.886,0-1.352-0.701-1.352-1.57h2.808v-0.257c0-1.103-0.474-2.036-1.633-2.036c-1.039,0-1.73,0.893-1.73,2.148
		c0,1.231,0.506,2.148,1.867,2.148c0.378,0,0.837-0.08,1.19-0.225V49.927z M124.791,46.53c-0.144-0.047-0.498-0.16-0.989-0.16
		c-1.215,0-2.027,0.885-2.027,2.148c0,1.143,0.643,2.148,1.962,2.148c0.387,0,0.708-0.024,1.054-0.145l-0.048-0.474
		c-0.306,0.113-0.603,0.186-0.925,0.186c-0.925,0-1.489-0.781-1.489-1.715c0-0.998,0.555-1.714,1.545-1.714
		c0.274,0,0.604,0.088,0.877,0.209L124.791,46.53z M117.607,50.569h0.506V48.3c0-0.683,0.29-1.496,1.216-1.496
		c0.7,0,0.974,0.499,0.974,1.271v2.494h0.506v-2.623c0-0.901-0.386-1.576-1.4-1.576c-0.853,0-1.159,0.458-1.328,0.828h-0.016v-0.731
		h-0.49c0.032,0.329,0.032,0.651,0.032,0.965V50.569z M113.833,48.229c0-0.676,0.459-1.425,1.207-1.425
		c0.757,0,1.047,0.708,1.047,1.425H113.833z M116.336,49.927c-0.241,0.153-0.781,0.306-1.151,0.306c-0.885,0-1.352-0.701-1.352-1.57
		h2.808v-0.257c0-1.103-0.474-2.036-1.633-2.036c-1.038,0-1.729,0.893-1.729,2.148c0,1.231,0.506,2.148,1.866,2.148
		c0.378,0,0.837-0.08,1.191-0.225V49.927z M112.304,44.697h-0.506v0.675h0.506V44.697z M111.798,50.569h0.506v-4.102h-0.506V50.569z
		 M110.936,46.53c-0.144-0.047-0.498-0.16-0.989-0.16c-1.215,0-2.027,0.885-2.027,2.148c0,1.143,0.643,2.148,1.962,2.148
		c0.387,0,0.709-0.024,1.054-0.145l-0.048-0.474c-0.306,0.113-0.603,0.186-0.925,0.186c-0.925,0-1.489-0.781-1.489-1.715
		c0-0.998,0.556-1.714,1.545-1.714c0.274,0,0.604,0.088,0.877,0.209L110.936,46.53z M104.05,50.425
		c0.297,0.129,0.723,0.241,1.271,0.241c0.869,0,1.842-0.45,1.842-1.584c0-1.642-2.575-1.65-2.575-2.777
		c0-0.724,0.636-0.965,1.216-0.965c0.378,0,0.773,0.072,1.022,0.209l0.088-0.507c-0.386-0.144-0.828-0.184-1.102-0.184
		c-0.99,0-1.778,0.562-1.778,1.463c0,1.473,2.575,1.61,2.575,2.712c0,0.797-0.572,1.151-1.264,1.151c-0.523,0-0.909-0.12-1.239-0.33
		L104.05,50.425z M97.806,48.518c0-0.797,0.249-1.714,1.215-1.714c0.901,0,1.215,0.966,1.215,1.714c0,0.749-0.314,1.715-1.215,1.715
		C98.055,50.233,97.806,49.315,97.806,48.518 M100.742,44.536h-0.506v2.622h-0.016c-0.072-0.201-0.475-0.788-1.28-0.788
		c-1.207,0-1.689,0.901-1.689,2.148c0,1.216,0.563,2.148,1.689,2.148c0.588,0,1.007-0.225,1.28-0.747h0.016v0.65h0.506V44.536z
		 M93.718,48.229c0-0.676,0.459-1.425,1.208-1.425c0.756,0,1.046,0.708,1.046,1.425H93.718z M96.221,49.927
		c-0.241,0.153-0.78,0.306-1.151,0.306c-0.885,0-1.352-0.701-1.352-1.57h2.808v-0.257c0-1.103-0.474-2.036-1.633-2.036
		c-1.038,0-1.729,0.893-1.729,2.148c0,1.231,0.506,2.148,1.866,2.148c0.379,0,0.837-0.08,1.191-0.225V49.927z M92.19,44.697h-0.506
		v0.675h0.506V44.697z M91.684,50.569h0.506v-4.102h-0.506V50.569z M89.898,50.569h0.506v-6.033h-0.506V50.569z M88.313,48.518
		c0,0.797-0.25,1.715-1.216,1.715c-0.901,0-1.215-0.966-1.215-1.715c0-0.748,0.314-1.714,1.215-1.714
		C88.063,46.804,88.313,47.721,88.313,48.518 M85.376,52.259h0.506V49.87h0.016c0.249,0.531,0.636,0.796,1.28,0.796
		c1.126,0,1.689-0.932,1.689-2.148c0-1.247-0.482-2.148-1.689-2.148c-0.87,0-1.184,0.619-1.312,0.844H85.85l0.032-0.747h-0.506
		V52.259z M83.839,48.518c0,0.797-0.25,1.715-1.215,1.715c-0.902,0-1.216-0.966-1.216-1.715c0-0.748,0.314-1.714,1.216-1.714
		C83.589,46.804,83.839,47.721,83.839,48.518 M80.902,52.259h0.506V49.87h0.016c0.25,0.531,0.636,0.796,1.28,0.796
		c1.127,0,1.689-0.932,1.689-2.148c0-1.247-0.482-2.148-1.689-2.148c-0.869,0-1.183,0.619-1.312,0.844h-0.016l0.032-0.747h-0.506
		V52.259z M78.842,48.583h-2.438l1.223-3.099L78.842,48.583z M75.053,50.569h0.539l0.603-1.504h2.832l0.603,1.504h0.579
		l-2.228-5.615h-0.627L75.053,50.569z M71.014,50.569h0.506V46.9h0.925v-0.433H71.52v-0.354c0-0.491-0.072-1.24,0.619-1.24
		c0.145,0,0.298,0.032,0.403,0.088l0.032-0.442c-0.097-0.055-0.314-0.08-0.475-0.08c-1.053,0-1.085,0.869-1.085,1.73v0.298h-0.829
		V46.9h0.829V50.569z M66.435,48.518c0-0.949,0.475-1.714,1.36-1.714s1.36,0.765,1.36,1.714c0,0.95-0.475,1.715-1.36,1.715
		S66.435,49.468,66.435,48.518 M65.881,48.518c0,1.119,0.586,2.148,1.914,2.148s1.914-1.029,1.914-2.148
		c0-1.118-0.586-2.148-1.914-2.148S65.881,47.4,65.881,48.518 M63.249,46.467h-0.531l-1.183,3.42h-0.016l0.008,0.008l-1.15-3.428
		h-0.555l1.456,4.152l-0.105,0.362c-0.16,0.531-0.305,0.893-0.74,0.893c-0.185,0-0.281-0.032-0.378-0.064l-0.048,0.433
		c0.169,0.04,0.362,0.064,0.547,0.064c0.571,0,0.861-0.562,1.054-1.125L63.249,46.467z M59.475,46.467h-0.933V45.3l-0.506,0.177
		v0.99h-0.805V46.9h0.805v2.399c0,0.748,0.032,1.367,0.932,1.367c0.25,0,0.499-0.064,0.62-0.112l-0.032-0.418
		c-0.145,0.056-0.274,0.097-0.467,0.097c-0.41,0-0.547-0.306-0.547-0.677V46.9h0.933V46.467z M56.426,44.697H55.92v0.675h0.506
		V44.697z M55.92,50.569h0.506v-4.102H55.92V50.569z M52.428,50.473c0.362,0.145,0.756,0.193,1.15,0.193
		c0.62,0,1.432-0.297,1.432-1.166c0-1.344-2.02-1.247-2.02-2.012c0-0.523,0.363-0.684,0.886-0.684c0.282,0,0.644,0.072,0.909,0.193
		l0.048-0.443c-0.361-0.135-0.796-0.184-1.013-0.184c-0.677,0-1.336,0.305-1.336,1.118c0,1.191,1.972,1.038,1.972,2.012
		c0,0.467-0.427,0.733-0.91,0.733c-0.395,0-0.764-0.105-1.07-0.258L52.428,50.473z M50.111,50.569h0.506v-2.027
		c0-0.74,0.217-1.642,1.022-1.642c0.128,0,0.265,0.017,0.37,0.049v-0.53c-0.089-0.024-0.233-0.049-0.354-0.049
		c-0.523,0-0.869,0.426-1.054,0.884h-0.016v-0.787h-0.506c0.032,0.297,0.032,0.466,0.032,0.916V50.569z M46.336,48.229
		c0-0.676,0.459-1.425,1.208-1.425c0.757,0,1.046,0.708,1.046,1.425H46.336z M48.839,49.927c-0.241,0.153-0.78,0.306-1.15,0.306
		c-0.886,0-1.353-0.701-1.353-1.57h2.808v-0.257c0-1.103-0.473-2.036-1.632-2.036c-1.039,0-1.73,0.893-1.73,2.148
		c0,1.231,0.506,2.148,1.867,2.148c0.378,0,0.837-0.08,1.19-0.225V49.927z M45.379,46.467h-0.531l-1.19,3.548h-0.016l-1.134-3.548
		h-0.555l1.391,4.102h0.595L45.379,46.467z M41.236,44.697H40.73v0.675h0.506V44.697z M40.73,50.569h0.506v-4.102H40.73V50.569z
		 M36.256,50.569h0.506V48.3c0-0.683,0.29-1.496,1.216-1.496c0.7,0,0.974,0.499,0.974,1.271v2.494h0.505v-2.623
		c0-0.901-0.385-1.576-1.399-1.576c-0.853,0-1.159,0.458-1.328,0.828h-0.016v-0.731h-0.49c0.032,0.329,0.032,0.651,0.032,0.965
		V50.569z M34.976,44.954h-0.554v3.653c0,0.917-0.507,1.577-1.481,1.577c-0.974,0-1.481-0.66-1.481-1.577v-3.653h-0.554v3.653
		c0,1.658,1.214,2.059,2.035,2.059s2.035-0.401,2.035-2.059V44.954z M27.791,46.53c-0.145-0.047-0.499-0.16-0.99-0.16
		c-1.215,0-2.026,0.885-2.026,2.148c0,1.143,0.642,2.148,1.962,2.148c0.386,0,0.708-0.024,1.054-0.145l-0.048-0.474
		c-0.306,0.113-0.604,0.186-0.926,0.186c-0.925,0-1.488-0.781-1.488-1.715c0-0.998,0.555-1.714,1.545-1.714
		c0.273,0,0.603,0.088,0.877,0.209L27.791,46.53z M23.8,44.697h-0.506v0.675H23.8V44.697z M23.294,50.569H23.8v-4.102h-0.506V50.569
		z M21.508,50.569h0.506v-6.033h-0.506V50.569z M17.275,48.518c0-0.949,0.475-1.714,1.36-1.714c0.886,0,1.361,0.765,1.361,1.714
		c0,0.95-0.475,1.715-1.361,1.715C17.75,50.233,17.275,49.468,17.275,48.518 M16.721,48.518c0,1.119,0.586,2.148,1.914,2.148
		c1.329,0,1.915-1.029,1.915-2.148c0-1.118-0.586-2.148-1.915-2.148C17.307,46.37,16.721,47.4,16.721,48.518 M12.561,50.569h0.506
		v-2.196c0-0.716,0.314-1.569,1.216-1.569c0.837,0,0.974,0.611,0.974,1.319v2.446h0.506v-2.454c0-1.013-0.298-1.745-1.4-1.745
		c-0.604,0-1.062,0.338-1.28,0.788h-0.016v-2.622h-0.506V50.569z M11.651,46.467h-0.933V45.3l-0.506,0.177v0.99H9.407V46.9h0.805
		v2.399c0,0.748,0.032,1.367,0.932,1.367c0.25,0,0.499-0.064,0.62-0.112l-0.032-0.418c-0.145,0.056-0.274,0.097-0.467,0.097
		c-0.41,0-0.547-0.306-0.547-0.677V46.9h0.933V46.467z M8.168,48.751c0,0.443-0.024,1.482-1.215,1.482
		c-0.467,0-0.854-0.202-0.854-0.741c0-0.902,1.047-0.99,1.924-0.99h0.145V48.751z M8.216,50.569h0.498
		c-0.04-0.28-0.04-0.53-0.04-0.86v-1.81c0-1.071-0.425-1.529-1.44-1.529c-0.362,0-0.893,0.129-1.207,0.281v0.491
		c0.378-0.241,0.781-0.338,1.207-0.338c0.685,0,0.934,0.354,0.934,1.055v0.209H8.072c-1.063,0-2.527,0.064-2.527,1.44
		c0,0.37,0.185,1.158,1.351,1.158c0.508,0,1.079-0.265,1.304-0.756h0.016V50.569z M4.434,45.066
		c-0.29-0.152-0.957-0.208-1.287-0.208c-1.738,0-2.832,1.198-2.832,2.904c0,1.738,1.062,2.904,2.832,2.904
		c0.354,0,0.981-0.056,1.287-0.241l-0.032-0.482c-0.322,0.193-0.885,0.241-1.255,0.241c-1.481,0-2.277-1.006-2.277-2.422
		c0-1.392,0.82-2.422,2.277-2.422c0.394,0,0.901,0.056,1.255,0.241L4.434,45.066z"/>
	<path class="st1" d="M157.63,39.841h0.755v-1.899c0-0.998,0.387-1.689,1.248-1.689c0.66,0.04,0.869,0.506,0.869,1.464v2.124h0.756
		v-2.438c0-1.102-0.474-1.761-1.536-1.761c-0.572,0-1.119,0.281-1.345,0.747h-0.016v-0.65h-0.731V39.841z M153.687,37.396
		c0.056-0.531,0.362-1.143,1.102-1.143c0.652,0,1.023,0.515,1.023,1.143H153.687z M156.302,38.916
		c-0.185,0.153-0.764,0.411-1.263,0.411c-0.717,0-1.352-0.556-1.352-1.369h2.928c0-1.319-0.442-2.316-1.81-2.316
		c-1.159,0-1.922,0.86-1.922,2.075c0,1.336,0.667,2.221,2.124,2.221c0.676,0,1.006-0.161,1.295-0.266V38.916z M151.016,39.841h0.755
		v-6.033h-0.755V39.841z M148.884,38.249c0,0.611-0.394,1.078-1.143,1.078c-0.346,0-0.765-0.233-0.765-0.668
		c0-0.725,1.015-0.789,1.425-0.789c0.161,0,0.322,0.016,0.483,0.016V38.249z M146.679,36.671c0.305-0.258,0.764-0.418,1.191-0.418
		c0.757,0,1.014,0.362,1.014,1.071c-0.298-0.016-0.507-0.016-0.805-0.016c-0.781,0-1.906,0.321-1.906,1.351
		c0,0.893,0.618,1.279,1.504,1.279c0.692,0,1.094-0.378,1.271-0.627h0.016v0.53h0.708c-0.016-0.12-0.033-0.337-0.033-0.804v-1.698
		c0-1.119-0.474-1.697-1.648-1.697c-0.524,0-0.975,0.161-1.352,0.386L146.679,36.671z M143.807,39.841h0.755v-3.492h1.087v-0.61
		h-1.087v-0.443c0-0.556,0.081-0.975,0.733-0.975c0.128,0,0.273,0.017,0.362,0.049l0.032-0.611
		c-0.153-0.024-0.314-0.048-0.507-0.048c-1.118,0-1.375,0.651-1.375,1.649v0.379h-0.965v0.61h0.965V39.841z M142.366,35.739h-1.086
		v-1.191l-0.756,0.241v0.95h-0.925v0.61h0.925v2.399c0,0.82,0.483,1.19,1.263,1.19c0.241,0,0.474-0.065,0.643-0.113v-0.643
		c-0.112,0.073-0.281,0.145-0.515,0.145c-0.346,0-0.635-0.257-0.635-0.732v-2.246h1.086V35.739z M136.711,39.713
		c0.345,0.184,0.739,0.225,1.126,0.225c0.732,0,1.431-0.402,1.431-1.279c0-1.312-1.778-1.07-1.778-1.907
		c0-0.339,0.339-0.499,0.725-0.499c0.177,0,0.627,0.104,0.796,0.209l0.065-0.66c-0.298-0.088-0.587-0.16-0.941-0.16
		c-0.814,0-1.448,0.41-1.448,1.262c0,1.151,1.778,1.087,1.778,1.836c0,0.442-0.427,0.587-0.773,0.587
		c-0.218,0-0.644-0.097-0.941-0.29L136.711,39.713z M133.113,37.396c0.057-0.531,0.362-1.143,1.103-1.143
		c0.652,0,1.022,0.515,1.022,1.143H133.113z M135.729,38.916c-0.185,0.153-0.764,0.411-1.263,0.411
		c-0.717,0-1.353-0.556-1.353-1.369h2.929c0-1.319-0.442-2.316-1.81-2.316c-1.159,0-1.922,0.86-1.922,2.075
		c0,1.336,0.667,2.221,2.123,2.221c0.677,0,1.006-0.161,1.296-0.266V38.916z M125.847,39.841h1.078l1.231-4.908h0.016l1.223,4.908
		h1.038l1.73-5.615h-0.853l-1.344,4.811h-0.016l-1.215-4.811h-1.143l-1.198,4.811h-0.016l-1.344-4.811h-0.885L125.847,39.841z
		 M121.76,37.982h2.067v-0.61h-2.067V37.982z M117.182,39.841h0.755v-1.899c0-0.998,0.386-1.689,1.248-1.689
		c0.66,0.04,0.869,0.506,0.869,1.464v2.124h0.755v-2.438c0-1.102-0.474-1.761-1.536-1.761c-0.571,0-1.119,0.281-1.344,0.747h-0.016
		v-0.65h-0.731V39.841z M115.845,33.968h-0.852v0.852h0.852V33.968z M115.041,39.841h0.755v-4.102h-0.755V39.841z M111.001,37.396
		c0.057-0.531,0.363-1.143,1.103-1.143c0.652,0,1.023,0.515,1.023,1.143H111.001z M113.617,38.916
		c-0.185,0.153-0.764,0.411-1.263,0.411c-0.717,0-1.353-0.556-1.353-1.369h2.929c0-1.319-0.442-2.316-1.81-2.316
		c-1.159,0-1.922,0.86-1.922,2.075c0,1.336,0.667,2.221,2.124,2.221c0.676,0,1.005-0.161,1.295-0.266V38.916z M105.555,39.841h0.756
		v-1.899c0-0.998,0.386-1.689,1.247-1.689c0.66,0.04,0.87,0.506,0.87,1.464v2.124h0.755v-2.438c0-1.102-0.474-1.761-1.536-1.761
		c-0.572,0-1.047,0.249-1.32,0.683h-0.016v-2.517h-0.756V39.841z M102.426,39.841h0.755v-1.867c0-1.03,0.442-1.673,1.118-1.673
		c0.129,0,0.282,0.016,0.419,0.072v-0.675c-0.161-0.032-0.274-0.056-0.499-0.056c-0.435,0-0.869,0.305-1.07,0.731h-0.016v-0.634
		h-0.707V39.841z M98.04,37.774c-0.017-0.749,0.305-1.521,1.126-1.521s1.216,0.78,1.216,1.545c0,0.684-0.354,1.529-1.208,1.529
		C98.362,39.327,98.023,38.418,98.04,37.774 M100.414,39.841h0.723v-6.033h-0.755v2.493h-0.016
		c-0.234-0.378-0.644-0.659-1.361-0.659c-1.19,0-1.769,0.973-1.769,2.075c0,1.119,0.522,2.221,1.761,2.221
		c0.733,0,1.2-0.37,1.401-0.675h0.016V39.841z M94.38,39.841h0.755v-1.867c0-1.03,0.443-1.673,1.118-1.673
		c0.129,0,0.282,0.016,0.419,0.072v-0.675c-0.161-0.032-0.274-0.056-0.499-0.056c-0.435,0-0.869,0.305-1.07,0.731h-0.016v-0.634
		H94.38V39.841z M89.994,37.79c0-0.781,0.475-1.537,1.288-1.537c0.804,0,1.279,0.756,1.279,1.537c0,0.732-0.394,1.537-1.279,1.537
		C90.388,39.327,89.994,38.522,89.994,37.79 M89.19,37.79c0,1.175,0.852,2.148,2.092,2.148c1.231,0,2.083-0.973,2.083-2.148
		c0-1.248-0.836-2.148-2.083-2.148C90.026,35.642,89.19,36.542,89.19,37.79 M83.719,39.841h0.804v-4.618h0.016l2.543,4.618h1.029
		v-5.615h-0.804v4.522h-0.016l-2.479-4.522h-1.093V39.841z"/>
	<path class="st0" d="M77.635,37.501c0-0.677,0.459-1.426,1.207-1.426c0.757,0,1.047,0.709,1.047,1.426H77.635z M80.138,39.198
		c-0.241,0.153-0.781,0.306-1.151,0.306c-0.885,0-1.352-0.7-1.352-1.57h2.808v-0.257c0-1.102-0.474-2.035-1.633-2.035
		c-1.038,0-1.729,0.892-1.729,2.148c0,1.231,0.506,2.148,1.866,2.148c0.378,0,0.837-0.081,1.191-0.225V39.198z M75.6,39.841h0.506
		v-6.033H75.6V39.841z M74.328,35.739h-0.506v2.269c0,0.683-0.29,1.496-1.215,1.496c-0.701,0-0.974-0.499-0.974-1.271v-2.494h-0.506
		v2.623c0,0.901,0.385,1.576,1.399,1.576c0.853,0,1.159-0.458,1.328-0.828h0.016v0.731h0.49c-0.032-0.329-0.032-0.651-0.032-0.965
		V35.739z M66.653,39.841h0.506v-2.197c0-0.716,0.314-1.569,1.216-1.569c0.837,0,0.974,0.612,0.974,1.32v2.446h0.505v-2.454
		c0-1.014-0.297-1.745-1.399-1.745c-0.604,0-1.063,0.337-1.28,0.788h-0.016v-2.622h-0.506V39.841z M65.791,35.802
		c-0.144-0.048-0.499-0.16-0.989-0.16c-1.215,0-2.027,0.884-2.027,2.148c0,1.143,0.643,2.148,1.962,2.148
		c0.387,0,0.708-0.025,1.054-0.145l-0.048-0.474c-0.306,0.113-0.603,0.185-0.925,0.185c-0.926,0-1.489-0.781-1.489-1.714
		c0-0.998,0.555-1.715,1.545-1.715c0.274,0,0.604,0.089,0.877,0.21L65.791,35.802z M59.589,39.745
		c0.361,0.144,0.755,0.193,1.15,0.193c0.62,0,1.432-0.297,1.432-1.166c0-1.344-2.02-1.248-2.02-2.012
		c0-0.524,0.363-0.685,0.886-0.685c0.282,0,0.644,0.073,0.909,0.194l0.048-0.443c-0.361-0.136-0.796-0.184-1.014-0.184
		c-0.676,0-1.335,0.305-1.335,1.118c0,1.191,1.972,1.038,1.972,2.012c0,0.466-0.427,0.732-0.91,0.732
		c-0.395,0-0.765-0.105-1.07-0.257L59.589,39.745z M55.478,39.841h0.505v-2.197c0-0.716,0.314-1.569,1.216-1.569
		c0.837,0,0.974,0.612,0.974,1.32v2.446h0.506v-2.454c0-1.014-0.297-1.745-1.4-1.745c-0.603,0-1.062,0.337-1.28,0.788h-0.016v-2.622
		h-0.505V39.841z M54.616,35.802c-0.145-0.048-0.499-0.16-0.99-0.16c-1.215,0-2.027,0.884-2.027,2.148
		c0,1.143,0.643,2.148,1.963,2.148c0.386,0,0.708-0.025,1.054-0.145l-0.049-0.474c-0.305,0.113-0.603,0.185-0.925,0.185
		c-0.925,0-1.488-0.781-1.488-1.714c0-0.998,0.555-1.715,1.544-1.715c0.274,0,0.604,0.089,0.877,0.21L54.616,35.802z M47.672,37.79
		c0-0.95,0.475-1.715,1.36-1.715c0.886,0,1.361,0.765,1.361,1.715c0,0.949-0.475,1.714-1.361,1.714
		C48.147,39.504,47.672,38.739,47.672,37.79 M47.118,37.79c0,1.119,0.586,2.148,1.914,2.148s1.915-1.029,1.915-2.148
		c0-1.119-0.587-2.148-1.915-2.148S47.118,36.671,47.118,37.79 M42.138,39.841h0.554v-2.647h2.841v2.647h0.554v-5.615h-0.554v2.486
		h-2.841v-2.486h-0.554V39.841z M36.054,37.501c0-0.677,0.459-1.426,1.207-1.426c0.757,0,1.047,0.709,1.047,1.426H36.054z
		 M38.557,39.198c-0.241,0.153-0.781,0.306-1.151,0.306c-0.885,0-1.352-0.7-1.352-1.57h2.808v-0.257
		c0-1.102-0.474-2.035-1.633-2.035c-1.038,0-1.729,0.892-1.729,2.148c0,1.231,0.506,2.148,1.866,2.148
		c0.378,0,0.837-0.081,1.191-0.225V39.198z M31.332,39.841h0.506v-2.197c0-0.716,0.314-1.569,1.215-1.569
		c0.837,0,0.974,0.612,0.974,1.32v2.446h0.506v-2.454c0-1.014-0.297-1.745-1.399-1.745c-0.604,0-1.063,0.337-1.28,0.788h-0.016
		v-2.622h-0.506V39.841z M30.47,35.802c-0.145-0.048-0.499-0.16-0.99-0.16c-1.215,0-2.026,0.884-2.026,2.148
		c0,1.143,0.642,2.148,1.962,2.148c0.386,0,0.708-0.025,1.054-0.145l-0.048-0.474c-0.306,0.113-0.604,0.185-0.926,0.185
		c-0.925,0-1.488-0.781-1.488-1.714c0-0.998,0.555-1.715,1.545-1.715c0.273,0,0.603,0.089,0.877,0.21L30.47,35.802z M24.268,39.745
		c0.361,0.144,0.755,0.193,1.15,0.193c0.62,0,1.431-0.297,1.431-1.166c0-1.344-2.019-1.248-2.019-2.012
		c0-0.524,0.362-0.685,0.886-0.685c0.281,0,0.643,0.073,0.909,0.194l0.048-0.443c-0.362-0.136-0.796-0.184-1.014-0.184
		c-0.676,0-1.335,0.305-1.335,1.118c0,1.191,1.971,1.038,1.971,2.012c0,0.466-0.426,0.732-0.91,0.732
		c-0.394,0-0.764-0.105-1.069-0.257L24.268,39.745z M23.35,33.968h-0.506v0.675h0.506V33.968z M22.844,39.841h0.506v-4.102h-0.506
		V39.841z M21.058,39.841h0.506v-6.033h-0.506V39.841z M16.824,37.79c0-0.95,0.475-1.715,1.361-1.715c0.885,0,1.36,0.765,1.36,1.715
		c0,0.949-0.475,1.714-1.36,1.714C17.299,39.504,16.824,38.739,16.824,37.79 M16.27,37.79c0,1.119,0.587,2.148,1.915,2.148
		c1.328,0,1.914-1.029,1.914-2.148c0-1.119-0.586-2.148-1.914-2.148C16.857,35.642,16.27,36.671,16.27,37.79 M12.111,39.841h0.505
		v-2.197c0-0.716,0.314-1.569,1.216-1.569c0.837,0,0.974,0.612,0.974,1.32v2.446h0.506v-2.454c0-1.014-0.297-1.745-1.4-1.745
		c-0.603,0-1.062,0.337-1.28,0.788h-0.016v-2.622h-0.505V39.841z M11.2,35.739h-0.933v-1.167l-0.506,0.177v0.99H8.957v0.433h0.804
		v2.398c0,0.749,0.032,1.368,0.932,1.368c0.25,0,0.499-0.065,0.62-0.113l-0.032-0.418c-0.145,0.057-0.274,0.097-0.467,0.097
		c-0.41,0-0.547-0.306-0.547-0.676v-2.656H11.2V35.739z M7.717,38.023c0,0.443-0.024,1.481-1.215,1.481
		c-0.467,0-0.853-0.201-0.853-0.741c0-0.901,1.046-0.99,1.924-0.99h0.144V38.023z M7.766,39.841h0.498
		c-0.041-0.281-0.041-0.53-0.041-0.86v-1.81c0-1.071-0.425-1.529-1.439-1.529c-0.363,0-0.894,0.128-1.208,0.281v0.491
		c0.379-0.242,0.781-0.339,1.208-0.339c0.684,0,0.933,0.355,0.933,1.055v0.21H7.621c-1.063,0-2.527,0.064-2.527,1.44
		c0,0.37,0.185,1.158,1.352,1.158c0.507,0,1.078-0.265,1.304-0.756h0.016V39.841z M0.621,39.841h0.554v-2.808l2.72,2.808h0.764
		l-2.953-2.968l2.72-2.647H3.702l-2.527,2.518v-2.518H0.621V39.841z"/>
	<path class="st1" d="M75.171,18.094c0-3.855,2.596-6.529,6.176-6.529c3.579,0,6.176,2.674,6.176,6.529s-2.597,6.53-6.176,6.53
		C77.767,24.624,75.171,21.949,75.171,18.094 M71.552,18.094c0,5.822,4.563,9.834,9.795,9.834s9.795-4.012,9.795-9.834
		c0-5.821-4.563-9.834-9.795-9.834S71.552,12.273,71.552,18.094 M55.975,27.535V16.521c0-2.911,2.085-4.956,4.603-4.956
		c2.478,0,4.602,1.101,4.602,4.956v11.014h3.461V16.521c0-6.372-3.461-8.261-7.827-8.261c-2.006,0-3.777,0.866-4.839,2.046V0h-3.461
		v27.535H55.975z M50.193,8.654h-6.765v-4.72h-3.462v17.504c0,3.737,2.045,6.097,5.586,6.097h4.641v-3.304h-4.169
		c-1.77,0-2.596-0.59-2.596-2.36v-9.913h6.765V8.654z M36.072,27.535V17.229c0-5.428-3.698-8.969-9.52-8.969
		c-6.057,0-9.755,4.249-9.755,9.638c0,5.546,3.855,10.03,9.283,10.03c2.4,0,3.737-0.786,5.114-1.809v-4.091
		c-1.18,1.495-2.793,2.596-4.76,2.596c-3.618,0-6.175-2.95-6.175-6.451c0-3.579,2.399-6.608,6.215-6.608
		c3.147,0,6.136,1.809,6.136,5.349v10.621H36.072z M3.817,27.535V18.96h3.934c1.809,0,3.068,1.062,3.068,3.422v5.153h3.461v-5.546
		c0-3.344-1.534-4.996-4.327-5.547v-0.078c1.062-0.276,2.203-2.164,2.951-3.462l2.478-4.248h-3.934l-3.265,5.585
		c-0.511,0.866-1.455,1.417-2.911,1.417H3.817V0H0.355v27.535H3.817z"/>
</g>
</svg>
